<svg width="141" height="103" viewBox="0 0 141 103" fill="none" xmlns="http://www.w3.org/2000/svg">
<path d="M32.5 102.9C23.1 102.9 15.4 99.7 9.4 93.3C3.6 86.7 0.7 79 0.7 70.2C0.7 64.8 1.3 59.5 2.5 54.3C3.9 49.1 5.7 43.4 7.9 37.2L22.3 -1.43051e-05H61L45.1 43.5C50.3 45.9 54.6 49.7 58 54.9C61.4 59.9 63.1 65.2 63.1 70.8C63.1 80 60 87.7 53.8 93.9C47.8 99.9 40.7 102.9 32.5 102.9ZM110.2 102.9C100.8 102.9 93.1 99.7 87.1 93.3C81.3 86.7 78.4 79 78.4 70.2C78.4 64.8 79 59.5 80.2 54.3C81.6 49.1 83.4 43.4 85.6 37.2L100 -1.43051e-05H138.7L122.8 43.5C128 45.9 132.3 49.7 135.7 54.9C139.1 59.9 140.8 65.2 140.8 70.8C140.8 80 137.7 87.7 131.5 93.9C125.5 99.9 118.4 102.9 110.2 102.9Z" fill="#F79420" fill-opacity="0.6"/>
</svg>
