<svg width="142" height="106" viewBox="0 0 142 106" fill="none" xmlns="http://www.w3.org/2000/svg">
<path d="M110.075 1.87474C119.474 2.01714 127.125 5.33342 133.027 11.8236C138.727 18.5107 141.51 26.2537 141.376 35.0527C141.295 40.4521 140.614 45.7424 139.336 50.9236C137.857 56.1018 135.971 61.7739 133.677 67.9399L118.715 104.917L80.0198 104.331L96.577 61.077C91.4139 58.5985 87.172 54.7338 83.8511 49.4829C80.5273 44.432 78.9078 39.1068 78.9926 33.5075C79.132 24.3085 82.3483 16.6564 88.6415 10.551C94.7317 4.64261 101.876 1.75052 110.075 1.87474ZM32.3843 0.69766C41.7832 0.840061 49.4339 4.15634 55.3362 10.6465C61.0356 17.3336 63.8186 25.0767 63.6853 33.8756C63.6035 39.275 62.9232 44.5653 61.6446 49.7466C60.166 54.9248 58.2798 60.5968 55.9862 66.7628L41.0243 103.74L2.32873 103.154L18.8859 59.9C13.7228 57.4215 9.4809 53.5568 6.16006 48.3059C2.8362 43.2549 1.21668 37.9298 1.30152 32.3304C1.44089 23.1315 4.65718 15.4793 10.9504 9.37395C17.0406 3.46554 24.1852 0.573438 32.3843 0.69766Z" fill="#F79420" fill-opacity="0.6"/>
</svg>
